<svg version="1.1" id="l1" xmlns="http://www.w3.org/2000/svg" xmlns:xlink="http://www.w3.org/1999/xlink" x="0px" y="0px" viewBox="0 0 53.3 26.8">
			<style type="text/css">
				.icon{fill:#2CCBAB;}
				.text{fill:#000;}
			</style>
			<g id="l2">
				<g id="l1-`2">
					<path class="icon" d="M10.3,25.4c-1.3,1-3,1.5-4.6,1.2c-3.5-0.4-6-3.5-5.6-7c0.1-1,0.5-2,1.1-2.9C4.5,11.9,8,7.2,11.6,2.5
					c2.1-2.8,6-3.3,8.8-1.2c0.5,0.4,1,0.9,1.3,1.4c1.7,2.2,3.2,4.4,5,6.8c1.6-2.2,3.1-4.3,4.6-6.3c3-4.1,7.9-4.1,11,0l9.5,13.1
					c2.3,3.2,1.8,7.1-1.1,9.2s-6.9,1.5-9.3-1.7c-1.3-1.7-7-9.6-8.4-11.5c-0.5-0.8-1.6-1-2.4-0.4c-0.8,0.5-1,1.6-0.4,2.4
					c0,0,0,0.1,0.1,0.1l1.4,1.9c2.3,3.2,1.8,7.1-1.1,9.2s-6.9,1.5-9.3-1.7c-1.2-1.8-2.5-3.4-3.9-5.4l-4.5-6.2c-0.5-0.8-1.6-1-2.4-0.5
					s-1,1.6-0.5,2.4c0,0.1,0.1,0.1,0.2,0.2l1.4,1.9C13.8,19.4,13.3,23.2,10.3,25.4z"></path>
				</g>
			</g>
		</svg>